<svg width="108" height="32" fill="none" xmlns="http://www.w3.org/2000/svg"><path d="M16.953 15.018c-.029-3.49 2.58-5.189 2.7-5.268a5.636 5.636 0 00-4.573-2.738c-1.923-.224-3.79 1.275-4.769 1.275-1 0-2.508-1.253-4.135-1.217-2.092.036-4.05 1.378-5.124 3.462-2.216 4.25-.563 10.493 1.56 13.928 1.062 1.683 2.303 3.56 3.927 3.494 1.59-.071 2.183-1.12 4.1-1.12 1.9 0 2.458 1.12 4.115 1.078 1.705-.03 2.779-1.69 3.804-3.387 1.227-1.927 1.72-3.827 1.74-3.924-.04-.015-3.312-1.4-3.345-5.583z" fill="#fff"/><path d="M13.91 5.065c.86-1.167 1.45-2.755 1.286-4.366-1.245.06-2.803.934-3.7 2.076-.793 1.005-1.501 2.654-1.318 4.204 1.398.113 2.834-.765 3.732-1.914zm26.143 22.288h-2.241l-1.228-4.17h-4.266l-1.17 4.17h-2.18l4.227-14.196h2.611l4.247 14.196zm-3.839-5.92l-1.11-3.706c-.117-.379-.338-1.27-.662-2.674h-.04c-.13.603-.337 1.495-.623 2.674l-1.09 3.707h3.525zm14.69.676c0 1.74-.437 3.117-1.312 4.127-.784.9-1.758 1.349-2.919 1.349-1.254 0-2.156-.484-2.703-1.452v5.37h-2.104V20.482a74.49 74.49 0 00-.078-3.364h1.85l.118 1.622h.039c.702-1.222 1.766-1.834 3.195-1.834 1.117 0 2.05.477 2.795 1.432.745.957 1.119 2.213 1.119 3.772zm-2.143.083c0-.996-.207-1.817-.624-2.465-.455-.673-1.065-1.01-1.83-1.01-.52 0-.992.188-1.413.558-.422.373-.698.86-.828 1.464a3.198 3.198 0 00-.097.693v1.708c0 .743.21 1.371.633 1.886.422.512.971.769 1.646.769.792 0 1.409-.332 1.85-.99.442-.66.663-1.531.663-2.613zm13.033-.083c0 1.74-.437 3.117-1.312 4.127-.785.9-1.758 1.349-2.92 1.349-1.254 0-2.156-.484-2.703-1.452v5.37h-2.104V20.482a75.54 75.54 0 00-.078-3.364h1.85l.117 1.622h.04c.7-1.222 1.765-1.834 3.195-1.834 1.116 0 2.048.477 2.796 1.432.744.957 1.119 2.213 1.119 3.772zm-2.144.083c0-.996-.208-1.817-.625-2.465-.454-.673-1.063-1.01-1.829-1.01-.519 0-.99.188-1.414.558-.422.373-.697.86-.827 1.464a3.27 3.27 0 00-.098.693v1.708c0 .743.212 1.371.632 1.886.422.51.971.769 1.648.769.793 0 1.41-.332 1.85-.99.442-.66.663-1.531.663-2.613zm14.32 1.179c0 1.209-.391 2.191-1.168 2.95-.854.827-2.047 1.242-3.577 1.242-1.412 0-2.545-.294-3.4-.884l.487-1.896a5.52 5.52 0 003.039.886c.793 0 1.41-.194 1.85-.58.44-.386.664-.902.664-1.546 0-.577-.185-1.06-.547-1.454-.364-.393-.966-.759-1.811-1.095-2.3-.927-3.45-2.282-3.45-4.066 0-1.165.407-2.119 1.218-2.864.81-.745 1.886-1.117 3.224-1.117 1.195 0 2.19.225 2.981.674l-.528 1.854c-.744-.435-1.583-.653-2.523-.653-.742 0-1.324.198-1.74.59-.35.351-.528.779-.528 1.287 0 .56.202 1.025.605 1.39.349.336.986.702 1.908 1.094 1.13.493 1.961 1.067 2.493 1.726.536.66.802 1.482.802 2.462zm6.972-4.548h-2.318v4.97c0 1.265.408 1.895 1.227 1.895.376 0 .688-.034.934-.106l.059 1.727c-.415.168-.96.252-1.636.252-.831 0-1.48-.274-1.949-.822-.467-.549-.701-1.467-.701-2.76v-5.16h-1.382v-1.706h1.382v-1.875l2.066-.674v2.549h2.318v1.71zm10.441 3.327c0 1.574-.416 2.866-1.247 3.876-.87 1.04-2.025 1.558-3.467 1.558-1.391 0-2.497-.498-3.322-1.493-.825-.997-1.237-2.254-1.237-3.77 0-1.586.426-2.885 1.275-3.895.852-1.012 1.998-1.517 3.44-1.517 1.39 0 2.505.499 3.35 1.495.807.967 1.208 2.215 1.208 3.747zm-2.18.053c0-.938-.188-1.742-.564-2.415-.44-.813-1.072-1.22-1.89-1.22-.843 0-1.489.407-1.93 1.22-.376.673-.564 1.491-.564 2.458 0 .938.188 1.745.565 2.416.455.813 1.09 1.219 1.911 1.219.804 0 1.435-.415 1.89-1.24.387-.689.582-1.498.582-2.438zm9.021-3.086a3.394 3.394 0 00-.663-.063c-.74 0-1.312.3-1.715.907-.35.533-.525 1.207-.525 2.021v5.371h-2.103V20.34c0-1.178-.021-2.254-.062-3.222h1.833l.076 1.958h.059c.223-.673.572-1.216 1.052-1.622.468-.366.974-.549 1.52-.549.194 0 .37.015.526.042l.002 2.17zm9.408 2.633c0 .408-.025.752-.077 1.032h-6.311c.024 1.011.33 1.786.916 2.32.532.475 1.219.714 2.064.714.934 0 1.787-.16 2.553-.483l.33 1.577c-.896.423-1.954.633-3.174.633-1.468 0-2.621-.467-3.46-1.4-.836-.933-1.256-2.187-1.256-3.759 0-1.542.39-2.828 1.171-3.853.817-1.094 1.921-1.641 3.31-1.641 1.364 0 2.398.547 3.099 1.641.556.867.835 1.943.835 3.22zm-2.006-.59c.015-.675-.123-1.256-.409-1.748-.364-.633-.924-.949-1.675-.949-.688 0-1.248.308-1.674.927-.351.492-.559 1.083-.623 1.769l4.381.002zM35.477 7.792h-1.101l-.603-2.013H31.68l-.575 2.013h-1.072L32.108.935h1.282l2.087 6.857zm-1.885-2.858l-.545-1.791c-.057-.183-.163-.61-.325-1.292h-.02c-.067.295-.163.723-.307 1.292l-.535 1.79h1.732zm7.075-2.086l-1.76 4.944h-1.005L36.2 2.848h1.11l.794 2.615c.134.437.249.854.335 1.25h.028c.077-.355.191-.772.334-1.25l.785-2.615h1.082zm3.748 4.944l-.077-.569h-.028c-.316.458-.775.682-1.359.682-.832 0-1.425-.621-1.425-1.456 0-1.22.994-1.85 2.717-1.85v-.092c0-.651-.326-.977-.966-.977-.46 0-.862.122-1.215.367l-.21-.723c.431-.285.966-.427 1.598-.427 1.214 0 1.828.681 1.828 2.045v1.821c0 .499.02.886.067 1.18h-.93zm-.144-2.462c-1.148 0-1.722.295-1.722.997 0 .519.297.772.708.772.526 0 1.014-.426 1.014-1.006V5.33zm3.307-3.296c-.344 0-.612-.285-.612-.662 0-.376.277-.65.632-.65a.62.62 0 01.63.65c0 .398-.266.662-.65.662zm.536 5.758h-1.032V2.848h1.032v4.944zm2.869 0H49.95V.58h1.033v7.212zm4.39 0l-.076-.569h-.03c-.315.458-.774.682-1.358.682-.831 0-1.425-.621-1.425-1.455 0-1.22.995-1.852 2.717-1.852v-.091c0-.651-.325-.977-.966-.977-.46 0-.862.123-1.215.367l-.21-.724c.43-.285.965-.427 1.597-.427 1.215 0 1.828.681 1.828 2.045v1.821c0 .499.02.886.066 1.18h-.928zM55.23 5.33c-1.148 0-1.722.296-1.722.997 0 .519.297.772.708.772.526 0 1.014-.426 1.014-1.006V5.33zm5.19 2.575c-.66 0-1.146-.296-1.462-.876h-.02l-.06.763h-.88c.029-.396.039-.845.039-1.332V.58h1.034v2.992h.02c.306-.55.802-.824 1.482-.824 1.12 0 1.904 1.018 1.904 2.502 0 1.535-.871 2.655-2.057 2.655zm-.21-4.294c-.594 0-1.138.549-1.138 1.312v.865c0 .681.489 1.241 1.12 1.241.774 0 1.235-.67 1.235-1.739-.001-.997-.48-1.68-1.217-1.68zm4.827 4.181h-1.032V.58h1.032v7.212zm5.623-2.207h-3.1c.02.936.602 1.464 1.464 1.464.459 0 .88-.082 1.252-.234l.161.764c-.44.203-.956.305-1.558.305-1.455 0-2.316-.977-2.316-2.492 0-1.516.881-2.656 2.2-2.656 1.185 0 1.932.936 1.932 2.35.004.194-.005.367-.034.499zm-.946-.783c0-.764-.364-1.302-1.025-1.302-.593 0-1.06.549-1.13 1.302h2.155zm7.208 3.103c-1.358 0-2.238-1.08-2.238-2.544 0-1.526.898-2.614 2.316-2.614 1.338 0 2.239 1.027 2.239 2.534 0 1.545-.929 2.624-2.317 2.624zm.04-4.355c-.747 0-1.225.742-1.225 1.78 0 1.018.488 1.76 1.215 1.76.726 0 1.213-.794 1.213-1.781.001-1.007-.477-1.76-1.203-1.76zm7.83 4.242H83.76V4.954c0-.875-.315-1.313-.937-1.313-.612 0-1.034.56-1.034 1.21v2.941h-1.032v-3.53c0-.438-.011-.906-.039-1.415h.909l.048.764h.029a1.65 1.65 0 011.473-.865c.974 0 1.615.793 1.615 2.085v2.961zm6.759-4.12h-1.136v2.401c0 .611.2.916.601.916.182 0 .336-.02.46-.05l.028.834c-.201.081-.47.122-.802.122-.815 0-1.3-.478-1.3-1.73V3.672h-.679v-.824h.678v-.905l1.014-.326v1.23h1.136v.825zm5.471 4.12h-1.034V4.974c0-.884-.316-1.332-.938-1.332-.535 0-1.031.387-1.031 1.17v2.98h-1.035V.58h1.035v2.97h.02c.325-.54.794-.804 1.396-.804.985 0 1.587.813 1.587 2.106v2.94zm5.279-2.207h-3.1c.02.936.6 1.464 1.462 1.464.461 0 .88-.082 1.253-.234l.162.764c-.44.203-.957.305-1.56.305-1.455 0-2.315-.977-2.315-2.492 0-1.516.881-2.656 2.199-2.656 1.186 0 1.933.936 1.933 2.35.004.194-.006.367-.034.499zm-.948-.783c0-.764-.363-1.302-1.023-1.302-.594 0-1.062.549-1.13 1.302h2.153z" fill="#fff"/></svg>