<svg width="107" height="28" fill="none" xmlns="http://www.w3.org/2000/svg"><path d="M34.332 4.326c0 .823-.23 1.48-.681 1.972-.52.582-1.195.875-2.024.875-.792 0-1.468-.298-2.023-.885-.555-.596-.833-1.327-.833-2.202s.277-1.606.833-2.196c.555-.592 1.231-.89 2.023-.89.394 0 .77.087 1.129.25.357.163.648.385.86.658l-.48.52c-.368-.467-.868-.697-1.509-.697-.578 0-1.078.217-1.504.653-.42.439-.631 1.006-.631 1.702 0 .697.21 1.27.631 1.707.426.432.926.654 1.504.654a2.02 2.02 0 001.536-.659c.268-.289.42-.687.46-1.197h-1.996V3.88h2.663c.032.154.042.302.042.446z" fill="#fff"/><path fill-rule="evenodd" clip-rule="evenodd" d="M31.627 1.313c-.703 0-1.297.26-1.795.79-.497.528-.748 1.181-.748 1.983s.25 1.455.748 1.988c.497.526 1.092.786 1.795.786.746 0 1.335-.259 1.79-.77l.004-.004c.387-.42.598-.998.598-1.76 0-.045 0-.09-.003-.134H31.94v.087h2.021l-.026.337c-.044.557-.214 1.03-.543 1.385a2.331 2.331 0 01-1.765.758c-.668 0-1.247-.26-1.726-.746l-.003-.003c-.485-.505-.718-1.16-.718-1.924s.233-1.413.718-1.918l.002-.001c.48-.495 1.06-.748 1.727-.748.598 0 1.106.18 1.508.549l.057-.062a2.09 2.09 0 00-.566-.372 2.398 2.398 0 00-.999-.222zm-2.25.363c.611-.653 1.37-.988 2.25-.988.442 0 .862.098 1.258.277.397.182.731.433.978.752l.16.21-.905.982-.227-.288c-.303-.384-.71-.578-1.264-.578-.488 0-.91.18-1.279.559-.356.371-.543.856-.543 1.484 0 .629.187 1.119.543 1.49.37.376.792.558 1.279.558.529 0 .96-.187 1.307-.558a1.41 1.41 0 00.329-.672h-1.948V3.567h3.23l.051.249c.038.182.048.353.048.51 0 .882-.247 1.621-.761 2.182-.583.651-1.345.977-2.256.977-.88 0-1.638-.335-2.25-.982l-.001-.002c-.614-.658-.917-1.467-.917-2.415 0-.947.302-1.756.917-2.41z" fill="#fff"/><path d="M38.556 1.86h-2.501v1.87h2.255v.712h-2.255v1.87h2.501v.725h-3.21V1.135h3.21v.725z" fill="#fff"/><path fill-rule="evenodd" clip-rule="evenodd" d="M35.034.823h3.835v1.35h-2.502v1.245h2.256v1.337h-2.256V6h2.502v1.35h-3.835V.823zm.625.625v5.277h2.585v-.1h-2.502V4.13h2.256v-.087h-2.256V1.548h2.502v-.1h-2.585z" fill="#fff"/><path d="M41.54 7.037h-.71V1.86h-1.534v-.725h3.779v.725h-1.536v5.177z" fill="#fff"/><path fill-rule="evenodd" clip-rule="evenodd" d="M38.984.823h4.403v1.35h-1.535V7.35h-1.334V2.173h-1.534V.823zm.625.625v.1h1.534v5.177h.084V1.548h1.535v-.1H39.61z" fill="#fff"/><path d="M45.81 7.037V1.135h.706v5.902h-.707z" fill="#fff"/><path fill-rule="evenodd" clip-rule="evenodd" d="M45.497.823h1.332V7.35h-1.332V.823zm.625.625v5.277h.082V1.448h-.082z" fill="#fff"/><path d="M49.65 7.037h-.702V1.86h-1.54v-.725h3.782v.725h-1.54v5.177z" fill="#fff"/><path fill-rule="evenodd" clip-rule="evenodd" d="M47.095.823h4.408v1.35h-1.54V7.35h-1.328V2.173h-1.54V.823zm.625.625v.1h1.54v5.177h.078V1.548h1.54v-.1H47.72z" fill="#fff"/><path d="M58.344 6.278a2.612 2.612 0 01-2.015.895 2.614 2.614 0 01-2.02-.895c-.54-.595-.81-1.326-.81-2.192 0-.865.27-1.596.81-2.191A2.614 2.614 0 0156.33 1c.797 0 1.468.298 2.01.9.546.6.815 1.326.815 2.186 0 .866-.27 1.597-.81 2.192zm-3.51-.494c.408.441.904.663 1.495.663.587 0 1.088-.222 1.491-.663.407-.442.613-1.01.613-1.698 0-.687-.206-1.255-.613-1.697a1.946 1.946 0 00-1.49-.663c-.592 0-1.088.222-1.496.663-.407.442-.614 1.01-.614 1.697 0 .688.207 1.256.614 1.698z" fill="#fff"/><path fill-rule="evenodd" clip-rule="evenodd" d="M56.33 1.313c-.718 0-1.306.26-1.789.792l-.231-.21.231.21c-.484.533-.729 1.187-.729 1.981 0 .795.245 1.449.73 1.982.482.532 1.07.792 1.787.792a2.3 2.3 0 001.783-.792c.485-.533.73-1.187.73-1.982 0-.788-.244-1.437-.734-1.976v-.001c-.484-.537-1.071-.796-1.779-.796zm-2.252.372A2.926 2.926 0 0156.33.687c.886 0 1.641.336 2.242 1.003.601.662.896 1.464.896 2.396 0 .937-.294 1.744-.892 2.402a2.924 2.924 0 01-2.246.997c-.894 0-1.65-.335-2.25-.997-.598-.658-.892-1.465-.892-2.402 0-.936.294-1.743.892-2.401zm.526.492a2.267 2.267 0 011.725-.763c.676 0 1.26.259 1.721.764.467.508.696 1.154.696 1.908 0 .755-.229 1.401-.696 1.909a2.258 2.258 0 01-1.72.764c-.682 0-1.26-.26-1.726-.763-.468-.508-.696-1.155-.696-1.91 0-.754.228-1.4.696-1.908zm.46.424c-.347.376-.531.865-.531 1.485 0 .621.184 1.11.53 1.486.35.38.765.562 1.266.562.498 0 .915-.183 1.26-.561l.001-.001c.347-.376.53-.865.53-1.486 0-.62-.183-1.109-.53-1.485a1.634 1.634 0 00-1.26-.562c-.502 0-.916.183-1.267.562z" fill="#fff"/><path d="M60.147 7.037V1.135h.86l2.672 4.59h.031l-.03-1.134V1.135h.706v5.902h-.738L60.85 2.221h-.031l.03 1.14v3.676h-.702z" fill="#fff"/><path fill-rule="evenodd" clip-rule="evenodd" d="M59.835.823h1.352l2.18 3.745V.823h1.332V7.35h-1.23l-2.307-3.97v3.97h-1.327V.823zm.625.625v5.277h.077v-3.36l-.04-1.457h.533l2.798 4.817h.246V1.448h-.082v3.139l.04 1.451H63.5l-2.673-4.59h-.367z" fill="#fff"/><path d="M53.326 15.657c-2.154 0-3.913 1.76-3.913 4.188 0 2.408 1.76 4.186 3.913 4.186 2.158 0 3.917-1.778 3.917-4.186 0-2.428-1.76-4.188-3.917-4.188zm0 6.725c-1.182 0-2.198-1.047-2.198-2.537 0-1.51 1.016-2.54 2.198-2.54 1.181 0 2.202 1.03 2.202 2.54 0 1.49-1.02 2.537-2.202 2.537zm-8.537-6.725c-2.158 0-3.913 1.76-3.913 4.188 0 2.408 1.755 4.186 3.913 4.186 2.157 0 3.913-1.778 3.913-4.186 0-2.428-1.756-4.188-3.913-4.188zm0 6.725c-1.183 0-2.203-1.047-2.203-2.537 0-1.51 1.02-2.54 2.203-2.54 1.181 0 2.198 1.03 2.198 2.54 0 1.49-1.017 2.537-2.198 2.537zM34.631 16.94v1.78h3.957c-.116.994-.425 1.725-.9 2.235-.577.615-1.477 1.298-3.057 1.298-2.436 0-4.343-2.11-4.343-4.726 0-2.615 1.907-4.725 4.343-4.725 1.316 0 2.275.552 2.982 1.269l1.167-1.255c-.989-1.014-2.304-1.793-4.15-1.793-3.339 0-6.145 2.918-6.145 6.504 0 3.586 2.806 6.504 6.146 6.504 1.805 0 3.16-.635 4.226-1.826 1.092-1.173 1.433-2.822 1.433-4.153a6.38 6.38 0 00-.09-1.112h-5.57zm41.538 1.38c-.322-.936-1.315-2.663-3.34-2.663-2.005 0-3.674 1.697-3.674 4.188 0 2.345 1.652 4.186 3.867 4.186 1.791 0 2.825-1.172 3.25-1.855l-1.329-.952c-.444.697-1.047 1.158-1.92 1.158-.868 0-1.49-.427-1.89-1.269l5.216-2.317-.18-.476zm-5.317 1.394c-.045-1.614 1.167-2.441 2.036-2.441.68 0 1.258.365 1.451.888l-3.487 1.553zm-4.24 4.063h1.715V11.47h-1.714v12.307zm-2.807-7.187h-.057c-.386-.49-1.12-.933-2.05-.933-1.953 0-3.739 1.84-3.739 4.201 0 2.347 1.785 4.173 3.738 4.173.93 0 1.665-.446 2.05-.95h.058v.6c0 1.6-.797 2.461-2.081 2.461-1.048 0-1.698-.812-1.966-1.495l-1.49.668c.429 1.11 1.567 2.476 3.456 2.476 2.01 0 3.706-1.27 3.706-4.36v-7.52h-1.625v.679zm-1.961 5.792c-1.181 0-2.17-1.062-2.17-2.524 0-1.475.989-2.552 2.17-2.552 1.164 0 2.082 1.077 2.082 2.552 0 1.462-.918 2.524-2.082 2.524zM84.196 11.47h-4.1v12.307h1.71v-4.663h2.39c1.899 0 3.761-1.476 3.761-3.823 0-2.345-1.867-3.82-3.761-3.82zm.045 5.932h-2.436v-4.22h2.436c1.276 0 2.005 1.138 2.005 2.11 0 .952-.729 2.11-2.005 2.11zm10.57-1.769c-1.236 0-2.52.586-3.049 1.885l1.517.683c.327-.683.927-.905 1.562-.905.887 0 1.787.572 1.8 1.583v.129c-.309-.192-.971-.476-1.786-.476-1.634 0-3.3.966-3.3 2.769 0 1.649 1.34 2.71 2.844 2.71 1.15 0 1.785-.557 2.184-1.205h.059v.951h1.651v-4.72c0-2.183-1.517-3.403-3.483-3.403zm-.207 6.744c-.56 0-1.338-.297-1.338-1.042 0-.953.971-1.318 1.813-1.318.753 0 1.106.178 1.563.413-.134 1.14-1.048 1.947-2.038 1.947zm9.706-6.474l-1.966 5.335h-.058l-2.032-5.335H98.41l3.053 7.455-1.742 4.149h1.787l4.704-11.604h-1.902zm-15.413 7.874h1.714V11.47h-1.714v12.307z" fill="#fff"/><path d="M.425 1.663C.155 1.966 0 2.437 0 3.048V24.82c0 .61.156 1.082.425 1.385l.067.066 11.361-12.196v-.287L.492 1.591l-.067.071z" fill="url(#paint0_linear)"/><path d="M15.636 18.143l-3.783-4.068v-.288l3.788-4.067.085.053 4.485 2.74c1.28.778 1.28 2.058 0 2.84l-4.485 2.737-.09.053z" fill="url(#paint1_linear)"/><path d="M15.726 18.09l-3.872-4.159L.426 26.205c.425.48 1.119.537 1.907.057l13.393-8.172z" fill="url(#paint2_linear)"/><path d="M15.726 9.773L2.333 1.601c-.788-.475-1.482-.418-1.907.062l11.428 12.269 3.873-4.159z" fill="url(#paint3_linear)"/><defs><linearGradient id="paint0_linear" x1="7.327" y1="25.047" x2="-3.349" y2="15.761" gradientUnits="userSpaceOnUse"><stop stop-color="#00A0FF"/><stop offset=".007" stop-color="#00A1FF"/><stop offset=".26" stop-color="#00BEFF"/><stop offset=".512" stop-color="#00D2FF"/><stop offset=".76" stop-color="#00DFFF"/><stop offset="1" stop-color="#00E3FF"/></linearGradient><linearGradient id="paint1_linear" x1="21.878" y1="13.93" x2="-.306" y2="13.93" gradientUnits="userSpaceOnUse"><stop stop-color="#FFE000"/><stop offset=".409" stop-color="#FFBD00"/><stop offset=".775" stop-color="orange"/><stop offset="1" stop-color="#FF9C00"/></linearGradient><linearGradient id="paint2_linear" x1="13.621" y1="15.496" x2="-4.413" y2="-.191" gradientUnits="userSpaceOnUse"><stop stop-color="#FF3A44"/><stop offset="1" stop-color="#C31162"/></linearGradient><linearGradient id="paint3_linear" x1="-2.451" y1="21.933" x2="5.601" y2="14.93" gradientUnits="userSpaceOnUse"><stop stop-color="#32A071"/><stop offset=".069" stop-color="#2DA771"/><stop offset=".476" stop-color="#15CF74"/><stop offset=".801" stop-color="#06E775"/><stop offset="1" stop-color="#00F076"/></linearGradient></defs></svg>